HIERARCHY
ROOT base
{
	OFFSET 0.0 0.0 0.0
	CHANNELS 6 Xposition Yposition Zposition Zrotation Yrotation Xrotation
	JOINT root
	{
		OFFSET 0 0 0
		CHANNELS 6 Xposition Yposition Zposition Zrotation Yrotation Xrotation
		JOINT chest
		{
			OFFSET 0 4.72302 0
			CHANNELS 3 Zrotation Yrotation Xrotation
			JOINT neck
			{
				OFFSET 0 4.47788 0
				CHANNELS 3 Zrotation Yrotation Xrotation
				End Site
				{
					OFFSET 0.0 0.0 0.0
				}
			}
			JOINT right_shoulder
			{
				OFFSET -0.481 4.87 3.6622
				CHANNELS 3 Zrotation Yrotation Xrotation
				JOINT right_elbow
				{
					OFFSET 0 -5.49576 0
					CHANNELS 3 Zrotation Yrotation Xrotation
					JOINT right_wrist
					{
						OFFSET 0 -5.17894 0
						CHANNELS 3 Zrotation Yrotation Xrotation
						End Site
						{
							OFFSET 0.0 0.0 0.0
						}
					}
				}
			}
			JOINT left_shoulder
			{
				OFFSET -0.481 4.87 -3.6622
				CHANNELS 3 Zrotation Yrotation Xrotation
				JOINT left_elbow
				{
					OFFSET 0 -5.49576 0
					CHANNELS 3 Zrotation Yrotation Xrotation
					JOINT left_wrist
					{
						OFFSET 0 -5.17894 0
						CHANNELS 3 Zrotation Yrotation Xrotation
						End Site
						{
							OFFSET 0.0 0.0 0.0
						}
					}
				}
			}
		}
		JOINT right_hip
		{
			OFFSET 0 0 1.69774
			CHANNELS 3 Zrotation Yrotation Xrotation
			JOINT right_knee
			{
				OFFSET 0 -8.43092 0
				CHANNELS 3 Zrotation Yrotation Xrotation
				JOINT right_ankle
				{
					OFFSET 0 -8.1974 0
					CHANNELS 3 Zrotation Yrotation Xrotation
					End Site
					{
						OFFSET 0.0 0.0 0.0
					}
				}
			}
		}
		JOINT left_hip
		{
			OFFSET 0 0 -1.69774
			CHANNELS 3 Zrotation Yrotation Xrotation
			JOINT left_knee
			{
				OFFSET 0 -8.43092 0
				CHANNELS 3 Zrotation Yrotation Xrotation
				JOINT left_ankle
				{
					OFFSET 0 -8.1974 0
					CHANNELS 3 Zrotation Yrotation Xrotation
					End Site
					{
						OFFSET 0.0 0.0 0.0
					}
				}
			}
		}
	}
	JOINT red_arrow
	{
		OFFSET 0 0 0
		CHANNELS 3 Zrotation Yrotation Xrotation
		End Site
		{
			OFFSET 0.0 0.0 0.0
		}
	}
	JOINT blue_arrow
	{
		OFFSET 0 0 0
		CHANNELS 3 Zrotation Yrotation Xrotation
		End Site
		{
			OFFSET 0.0 0.0 0.0
		}
	}
}
MOTION
Frames: 8
Frame Time: 0.0333333333333333
0 18.08466 0 0 0 0 0 0 0 0 -90 0 0 0 0 0 0 0 0 0 -90 0 0 0 0 0 0 0 0 90 0 0 0 0 0 0 0 0 0 0 0 0 0 0 0 0 0 0 0 0 0 0 0 0 0 0 0 0 0 0
-0.375402327626944 0 -0.00561491195112468 0 -0.89472606460915 0 0 17.9339176416397 0 -4.31710000579521 -8.6968292071268E-17 2.74271958872562 -0.786987549080186 0.130210474768903 1.03636998975275 -16.4633916443605 -4.73201557268226 1.61141847446202 11.4661159862173 -9.50119177239571 -14.2014917113342 12.5369769998721 0 0 0 0 0 9.51504166524071 -9.82383044140134 15.2346249322344 -0.0601955510528066 0 0 0 0 0 0.708823881265067 -1.14304166459247 -2.49405549006389 3.29843220569019E-05 0 0 -1.77705296017515 -8.71509369366996 1.40331146181156 3.30945036085999 -0.844934179651229 -1.57288595658113 0.000183281528182768 0 0 -5.67107355038314 8.10478148335388 1.80910755129814 0 0 0 0 0 0
-0.660649184882641 0 0.0103867813944817 0 -0.830154839212797 0 0 17.8871603131294 0 -5.19344536469512 1.22181828582639 1.74815059638924 -5.67257593233334 -0.609627332435954 2.66179165721138 -17.2729042786024 -5.78125329742029 2.59818534050358 10.0424097123626 -8.53344758629475 -29.946329684499 4.17910247009108 0 0 0 0 0 -1.85804008488315 -13.5034714880068 29.1413903960443 -1.04905624324996E-05 0 0 0 0 0 2.50320877324071 -0.733267083701443 -1.39211489187899 0.0201074816095025 0 0 -2.1785044141319 -10.5329608400154 0.472955850946569 7.32108430036831 0.827490365411988 -0.956716788702308 0.002804544291929 0 0 -4.76436051536488 4.80009391763416 3.43448521348869 0 0 0 0 0 0
-1.07932167351246 0 -0.0148639336694032 0 -0.663714644383293 0 0 17.6839164018631 0 -7.81983845887445 3.13301507685733 0.793111657423224 -9.72947778811422 -0.84361051647281 4.67684688428039 -17.3026147992518 -7.90341446327985 4.09357986649312 4.74093816260733 -12.8612472542197 -46.9280403415835 -0.001572834171666 0 0 0 0 0 -15.3023432679406 -11.2460733376033 42.5221360033826 -0.000131114676485681 0 0 0 0 0 6.08811314169681 -1.65807291490758 -0.737985354729263 0.00173829200250359 0 0 1.22633615767764 -11.6102333904471 -0.30413973685371 14.8129246006083 4.18811827379299 -1.40760846922658 0.0106290183234229 0 0 -1.42313442878246 2.72421250778382 3.74481910107378 0 0 0 0 0 0
-1.66473873257637 0 0.0297221504151821 0 -0.425698416549921 0 0 17.6093284487724 0 -11.4907145396591 4.4320325172034 -1.17068196962206 -14.8533701344195 -0.521390308248898 7.15402766498013 -15.5588443321355 -8.31384789406746 5.40863657644362 0.375350211671731 -23.7036990523291 -59.8063341312335 -0.00145856294740467 0 0 0 0 0 -24.670000876133 -2.83577759312066 49.599097512411 -0.000153677250082283 0 0 0 0 0 13.4337180876198 -5.1686502374598 0.628062042481582 -4.00334206595278 0 0 2.10107327201192 -9.84438160529109 -0.531390065470933 24.7473010748537 8.32249850145424 -0.948126812877792 0.000910951259209827 0 0 -0.109780077860751 1.29181130198312 3.27592078079039 0 0 0 0 0 0
-2.36448168158531 0 0.0360629938542843 0 -0.211981600103486 0 0 17.5143993973732 0 -15.6498149472935 3.91056183025691 -1.87346701665565 -19.859183234129 0.0443216990060638 6.99903915071844 -13.0352550654014 -7.37073100965709 6.22046071994487 -1.49344594798477 -35.9720868959728 -66.8611863323194 -7.03386924559218E-06 0 0 0 0 0 -30.4083626125128 10.3662956884349 51.0034134853657 -0.0070637796385952 0 0 0 0 0 24.9801069488063 -7.4271768879814 -0.263003772077347 -14.4660162281014 0 0 3.9415524190716 -4.32579807961006 -0.112814558290719 36.4209175228655 12.6608338863668 -0.806817291493254 -0.327298075993662 0 0 -6.29183953020251 0.477062067196449 5.2491345123666 0 0 0 0 0 0
-3.03465957641602 0 0.0217571465298533 0 -0.0584059177910844 0 0 17.2762793779373 0 -19.4846356446859 2.75109499194714 -2.2458436645168 -24.1690072089356 0.268356763536283 6.17411127295869 -9.45725740990886 -5.39983392445934 6.31058553035382 -3.33594799881151 -47.7255389497039 -66.7182757001072 -1.93399464360341E-06 0 0 0 0 0 -34.4632082890264 24.4132427191794 45.8501469669632 -0.104249804291926 0 0 0 0 0 38.4806144728904 -6.38051840534493 -1.43438876300555 -29.0077690088145 0 0 4.08343243849748 0.278922648670379 0.432862996220611 49.8191556466569 13.3966433877279 0.675406268092976 -7.08990839386296 0 0 -13.9854245041702 0.700189679505211 7.2207324196247 0 0 0 0 0 0
-3.59578233957291 0 -0.0402503557503223 0 0.00482337199826433 0 0 16.8557620763779 0 -22.8145618024096 1.10739233813305 -2.15404133539552 -27.32750702308 0.223734826448721 5.18771119792627 -4.29068572695168 -3.33422052005546 4.77867323437191 -10.3828442002491 -56.557253318418 -55.6660960531046 -4.43089720033967E-08 0 0 0 0 0 -38.5677151406178 37.5829096817216 36.2755273260303 -1.38516309452425E-05 0 0 0 0 0 53.173237941964 -1.71529738038742 -1.53400965072957 -44.7808204817734 0 0 4.36046752848869 -0.148943934358473 -0.543171834091251 61.9697530553697 10.4899270878253 2.64393834297651 -19.8798580982326 0 0 -18.0057792896805 1.10584842573118 7.38990027472436 0 0 0 0 0 0
